<mxfile host="app.diagrams.net" modified="2023-08-11T07:01:30.722Z" agent="Mozilla/5.0 (Windows NT 10.0; Win64; x64) AppleWebKit/537.36 (KHTML, like Gecko) Chrome/115.0.0.0 Safari/537.36" version="21.6.8" etag="IAD_-pDBQlmPwYFP3EH9" type="github">
  <diagram name="Page-1" id="c8TxpDba3lWzzhsD6WCB">
    <mxGraphModel>
      <root>
        <mxCell id="0" />
        <mxCell id="1" parent="0" />
        <mxCell id="2" value="User" style="shape=table;startSize=75;container=1;collapsible=0;childLayout=tableLayout;fixedRows=1;rowLines=1;fontStyle=1;align=center;resizeLast=1;" vertex="1" parent="1">
          <mxGeometry x="20" y="20" width="100" height="75" as="geometry" />
        </mxCell>
        <mxCell id="3" value="Role" style="shape=table;startSize=25;container=1;collapsible=0;childLayout=tableLayout;fixedRows=1;rowLines=1;fontStyle=1;align=center;resizeLast=1;" vertex="1" parent="1">
          <mxGeometry x="20" y="363" width="102" height="68" as="geometry" />
        </mxCell>
        <mxCell id="4" style="shape=tableRow;horizontal=0;startSize=0;swimlaneHead=0;swimlaneBody=0;fillColor=none;collapsible=0;dropTarget=0;points=[[0,0.5],[1,0.5]];portConstraint=eastwest;top=0;left=0;right=0;bottom=0;" vertex="1" parent="3">
          <mxGeometry y="21" width="100" height="21" as="geometry" />
        </mxCell>
        <mxCell id="5" value="string" style="shape=partialRectangle;connectable=0;fillColor=none;top=0;left=0;bottom=0;right=0;align=left;spacingLeft=2;overflow=hidden;fontSize=11;" vertex="1" parent="4">
          <mxGeometry width="36" height="21" as="geometry" />
        </mxCell>
        <mxCell id="6" value="name" style="shape=partialRectangle;connectable=0;fillColor=none;top=0;left=0;bottom=0;right=0;align=left;spacingLeft=2;overflow=hidden;fontSize=11;" vertex="1" parent="4">
          <mxGeometry width="66" height="21" as="geometry" />
        </mxCell>
        <mxCell id="7" style="shape=tableRow;horizontal=0;startSize=0;swimlaneHead=0;swimlaneBody=0;fillColor=none;collapsible=0;dropTarget=0;points=[[0,0.5],[1,0.5]];portConstraint=eastwest;top=0;left=0;right=0;bottom=0;" vertex="1" parent="3">
          <mxGeometry y="43" width="100" height="21" as="geometry" />
        </mxCell>
        <mxCell id="8" value="string" style="shape=partialRectangle;connectable=0;fillColor=none;top=0;left=0;bottom=0;right=0;align=left;spacingLeft=2;overflow=hidden;fontSize=11;" vertex="1" parent="7">
          <mxGeometry width="36" height="21" as="geometry" />
        </mxCell>
        <mxCell id="9" value="description" style="shape=partialRectangle;connectable=0;fillColor=none;top=0;left=0;bottom=0;right=0;align=left;spacingLeft=2;overflow=hidden;fontSize=11;" vertex="1" parent="7">
          <mxGeometry width="66" height="21" as="geometry" />
        </mxCell>
        <mxCell id="10" value="Process" style="shape=table;startSize=25;container=1;collapsible=0;childLayout=tableLayout;fixedRows=1;rowLines=1;fontStyle=1;align=center;resizeLast=1;" vertex="1" parent="1">
          <mxGeometry x="95" y="195" width="102" height="68" as="geometry" />
        </mxCell>
        <mxCell id="11" style="shape=tableRow;horizontal=0;startSize=0;swimlaneHead=0;swimlaneBody=0;fillColor=none;collapsible=0;dropTarget=0;points=[[0,0.5],[1,0.5]];portConstraint=eastwest;top=0;left=0;right=0;bottom=0;" vertex="1" parent="10">
          <mxGeometry y="21" width="100" height="21" as="geometry" />
        </mxCell>
        <mxCell id="12" value="string" style="shape=partialRectangle;connectable=0;fillColor=none;top=0;left=0;bottom=0;right=0;align=left;spacingLeft=2;overflow=hidden;fontSize=11;" vertex="1" parent="11">
          <mxGeometry width="36" height="21" as="geometry" />
        </mxCell>
        <mxCell id="13" value="name" style="shape=partialRectangle;connectable=0;fillColor=none;top=0;left=0;bottom=0;right=0;align=left;spacingLeft=2;overflow=hidden;fontSize=11;" vertex="1" parent="11">
          <mxGeometry width="66" height="21" as="geometry" />
        </mxCell>
        <mxCell id="14" style="shape=tableRow;horizontal=0;startSize=0;swimlaneHead=0;swimlaneBody=0;fillColor=none;collapsible=0;dropTarget=0;points=[[0,0.5],[1,0.5]];portConstraint=eastwest;top=0;left=0;right=0;bottom=0;" vertex="1" parent="10">
          <mxGeometry y="43" width="100" height="21" as="geometry" />
        </mxCell>
        <mxCell id="15" value="string" style="shape=partialRectangle;connectable=0;fillColor=none;top=0;left=0;bottom=0;right=0;align=left;spacingLeft=2;overflow=hidden;fontSize=11;" vertex="1" parent="14">
          <mxGeometry width="36" height="21" as="geometry" />
        </mxCell>
        <mxCell id="16" value="description" style="shape=partialRectangle;connectable=0;fillColor=none;top=0;left=0;bottom=0;right=0;align=left;spacingLeft=2;overflow=hidden;fontSize=11;" vertex="1" parent="14">
          <mxGeometry width="66" height="21" as="geometry" />
        </mxCell>
        <mxCell id="17" value="in" style="shape=table;startSize=75;container=1;collapsible=0;childLayout=tableLayout;fixedRows=1;rowLines=1;fontStyle=1;align=center;resizeLast=1;" vertex="1" parent="1">
          <mxGeometry x="220" y="20" width="100" height="75" as="geometry" />
        </mxCell>
        <mxCell id="18" value="has" style="curved=1;startArrow=ERmandOne;startSize=10;;endArrow=ERmany;endSize=10;;exitX=0.17857142857142855;exitY=1;entryX=0.19362160537941472;entryY=-0.005882375380572151;" edge="1" parent="1" source="2" target="3">
          <mxGeometry relative="1" as="geometry">
            <Array as="points">
              <mxPoint x="-5" y="145" />
              <mxPoint x="-5" y="313" />
            </Array>
          </mxGeometry>
        </mxCell>
        <mxCell id="19" value="participates" style="curved=1;startArrow=ERmandOne;startSize=10;;endArrow=ERmany;endSize=10;;exitX=0.8214285714285714;exitY=1;entryX=0.49019607843137253;entryY=0;" edge="1" parent="1" source="2" target="10">
          <mxGeometry relative="1" as="geometry">
            <Array as="points">
              <mxPoint x="145" y="145" />
            </Array>
          </mxGeometry>
        </mxCell>
        <mxCell id="20" value="has" style="curved=1;startArrow=ERmandOne;startSize=10;;endArrow=ERmany;endSize=10;;exitX=0.49019607843137253;exitY=0.9941176246194279;entryX=0.7867705514833304;entryY=-0.005882375380572151;" edge="1" parent="1" source="10" target="3">
          <mxGeometry relative="1" as="geometry">
            <Array as="points">
              <mxPoint x="145" y="313" />
            </Array>
          </mxGeometry>
        </mxCell>
      </root>
    </mxGraphModel>
  </diagram>
</mxfile>
